<?xml version="1.0" encoding="UTF-8" standalone="no"?>
<!-- Created with Inkscape (http://www.inkscape.org/) -->

<svg
   width="210mm"
   height="297mm"
   viewBox="0 0 210 297"
   version="1.1"
   id="svg1"
   xml:space="preserve"
   inkscape:version="1.4.3 (0d15f75, 2025-12-25)"
   sodipodi:docname="Logo with Text.svg"
   xmlns:inkscape="http://www.inkscape.org/namespaces/inkscape"
   xmlns:sodipodi="http://sodipodi.sourceforge.net/DTD/sodipodi-0.dtd"
   xmlns="http://www.w3.org/2000/svg"
   xmlns:svg="http://www.w3.org/2000/svg"><sodipodi:namedview
     id="namedview1"
     pagecolor="#505050"
     bordercolor="#eeeeee"
     borderopacity="1"
     inkscape:showpageshadow="0"
     inkscape:pageopacity="0"
     inkscape:pagecheckerboard="0"
     inkscape:deskcolor="#505050"
     inkscape:document-units="mm"
     inkscape:zoom="0.46912888"
     inkscape:cx="302.68868"
     inkscape:cy="684.24694"
     inkscape:window-width="1470"
     inkscape:window-height="895"
     inkscape:window-x="0"
     inkscape:window-y="61"
     inkscape:window-maximized="0"
     inkscape:current-layer="layer1" /><defs
     id="defs1"><clipPath
       clipPathUnits="userSpaceOnUse"
       id="clipPath4"><rect
         style="fill:#000000;stroke-width:0.238492"
         id="rect4"
         width="284.81424"
         height="58.654808"
         x="-37.787235"
         y="120.12957" /></clipPath></defs><g
     inkscape:label="Layer 1"
     inkscape:groupmode="layer"
     id="layer1"><g
       id="g4"><path
         style="font-weight:600;font-size:35.2777px;font-family:'TT Hoves';-inkscape-font-specification:'TT Hoves Semi-Bold';stroke-width:0.264583"
         d="m -19.089294,160.84717 h 6.702763 l 8.4666472,-24.69439 h -5.1152663 l -6.3499859,19.04996 h -0.705554 l -6.349986,-19.04996 h -5.115266 z m 17.9916369,0 H 15.482861 v -4.23333 H 3.4884437 v -5.9972 H 14.777307 v -4.23333 H 3.4884437 V 140.3861 H 15.482861 v -4.23332 H -1.0976571 Z m 21.1666331,0 h 16.227742 v -4.40971 H 24.655077 v -20.28468 h -4.586101 z m 29.104079,-4.05694 c -4.233324,0 -7.408317,-3.21027 -7.408317,-8.29026 0,-5.07999 3.174993,-8.29026 7.408317,-8.29026 4.233323,0 7.408316,3.21027 7.408316,8.29026 0,5.07999 -3.174993,8.29026 -7.408316,8.29026 z m 0,-20.99023 c -6.667485,0 -11.994418,5.25638 -11.994418,12.69997 0,7.4436 5.326933,12.69997 11.994418,12.69997 6.667485,0 11.994417,-5.25637 11.994417,-12.69997 0,-7.44359 -5.326932,-12.69997 -11.994417,-12.69997 z m 27.692983,25.04717 h 6.349986 l 4.233324,-16.9333 h 0.705554 l 4.233323,16.9333 h 6.349986 l 6.173599,-24.69439 h -5.115268 l -4.233324,17.28607 h -0.705554 l -4.409712,-17.28607 h -5.291655 l -4.409712,17.28607 h -0.705554 l -4.233324,-17.28607 h -5.115266 z m 41.804052,-4.05694 c -4.23332,0 -7.40831,-3.21027 -7.40831,-8.29026 0,-5.07999 3.17499,-8.29026 7.40831,-8.29026 4.23333,0 7.40832,3.21027 7.40832,8.29026 0,5.07999 -3.17499,8.29026 -7.40832,8.29026 z m 0,-20.99023 c -6.66748,0 -11.99441,5.25638 -11.99441,12.69997 0,7.4436 5.32693,12.69997 11.99441,12.69997 6.66749,0 11.99442,-5.25637 11.99442,-12.69997 0,-7.44359 -5.32693,-12.69997 -11.99442,-12.69997 z m 16.22777,25.04717 h 4.5861 v -8.46665 h 1.41111 l 7.93748,8.46665 h 5.82082 l -7.93748,-8.46665 c 3.88054,-0.17639 7.23192,-3.17499 7.23192,-7.93748 0,-4.93888 -3.38666,-8.29026 -7.76109,-8.29026 h -11.28886 z m 4.5861,-12.69997 v -7.58471 h 6.52637 c 1.76389,0 3.35138,1.5875 3.35138,3.88055 0,2.11666 -1.58749,3.70416 -3.35138,3.70416 z m 18.8736,12.69997 h 4.5861 v -11.46525 l 9.1722,11.46525 h 5.64443 l -10.05414,-12.52359 9.34859,-12.1708 h -5.64443 l -8.46665,11.11247 v -11.11247 h -4.5861 z m 21.34299,0 h 4.5861 v -24.69439 h -4.5861 z m 9.87777,0 h 4.5861 v -17.10969 h 0.70556 l 8.99581,17.10969 h 6.1736 v -24.69439 h -4.5861 v 17.10968 h -0.70556 l -8.99581,-17.10968 h -6.1736 z m 44.44988,0 h 3.52777 v -13.05275 h -10.75969 v 3.52777 h 6.17359 v 0.17639 c 0,1.58749 -2.11666,5.29165 -6.70276,5.29165 -4.23332,0 -7.40832,-3.21027 -7.40832,-8.29026 0,-5.07999 3.175,-8.29026 7.40832,-8.29026 3.3161,0 5.29165,2.11667 6.34999,4.40972 h 4.76248 C 236.53292,140.73888 232.93459,135.8 226.26711,135.8 c -6.66749,0 -11.99442,5.25638 -11.99442,12.69997 0,7.4436 5.32693,12.69997 11.99442,12.69997 2.50472,0 4.23332,-0.7761 5.46804,-1.58749 0.70556,-0.45861 1.30528,-0.98778 1.76389,-1.5875 h 0.17639 z"
         id="text1"
         aria-label="VELO WORKING"
         inkscape:export-filename="Logo with Text.svg"
         inkscape:export-xdpi="92.407616"
         inkscape:export-ydpi="92.407616" /><path
         style="fill:#000000;stroke-width:0.182189"
         d="m -63.08431,159.73324 v -11.95468 h 1.711254 1.711254 v 11.95468 11.95468 h -1.711254 -1.711254 z m 13.473111,-0.82354 c -2.7838,-2.88889 -5.165724,-5.36884 -5.293161,-5.51098 l -0.231706,-0.25846 0.549761,-1.29497 0.549763,-1.29498 7.635659,0.0174 c 4.199613,0.01 7.642322,0.0236 7.650469,0.0309 0.01335,0.0121 -1.513544,3.63653 -1.544387,3.66591 -0.0071,0.007 -1.932699,-0.0391 -4.279044,-0.10194 -2.346348,-0.0628 -4.407082,-0.11379 -4.579413,-0.11326 l -0.313328,9e-4 3.263591,3.23912 3.263592,3.23912 -0.776198,1.81972 c -0.42691,1.00085 -0.789235,1.81842 -0.80517,1.81682 -0.01595,-0.001 -2.306627,-2.36654 -5.090428,-5.25543 z m -29.666932,3.11343 c -0.40939,-1.01953 -0.73477,-1.86111 -0.72306,-1.87019 0.11854,-0.0919 6.601154,-6.26625 6.601154,-6.28717 0,-0.0155 -2.06247,-0.0194 -4.583264,-0.009 l -4.58327,0.0194 -0.74007,-1.83176 -0.74007,-1.83177 0.15342,-0.0131 c 0.34112,-0.0292 15.135529,0.27402 15.167398,0.31083 0.01891,0.0219 0.267301,0.61697 0.551984,1.32251 l 0.517602,1.28278 -3.365959,3.34337 c -1.851279,1.83885 -4.288204,4.26051 -5.415385,5.38145 -1.12719,1.12096 -2.05995,2.03766 -2.0728,2.03711 -0.0129,-4.5e-4 -0.3583,-0.83516 -0.76768,-1.85469 z m 33.041236,-14.34438 c -3.791272,-0.0741 -7.098103,-0.14163 -7.348513,-0.15003 l -0.455294,-0.0153 -0.520844,-1.3003 c -0.286465,-0.71518 -0.520846,-1.31372 -0.520846,-1.3301 0,-0.0374 3.03224,-3.04993 5.890442,-5.87067 2.539166,-2.5059 4.940976,-4.86047 4.957427,-4.84345 0.02131,0.0221 0.36701,0.85212 0.768213,1.84455 l 0.729459,1.80441 -0.207484,0.20195 c -0.114116,0.11108 -1.519848,1.44395 -3.123846,2.96192 -1.603998,1.51799 -3.013976,2.85516 -3.133281,2.9715 l -0.21692,0.21154 4.60739,-0.0328 c 3.946267,-0.028 4.611369,-0.023 4.635133,0.0354 0.249971,0.61373 1.323165,3.26153 1.390383,3.43038 l 0.09115,0.22896 -0.324674,-0.007 c -0.178575,-0.003 -3.426627,-0.0673 -7.217897,-0.14137 z m -31.875116,-0.22557 c -3.49313,-0.008 -5.89298,-0.0303 -5.89298,-0.0563 0,-0.0603 1.49413,-3.5857 1.54033,-3.63439 0.0204,-0.0215 2.08435,0.0149 4.58652,0.0808 2.502157,0.066 4.555892,0.1135 4.56385,0.1055 0.008,-0.008 -1.450958,-1.46694 -3.24204,-3.24218 l -3.2565,-3.22771 0.78062,-1.84246 0.78062,-1.84246 0.13009,0.13515 c 0.0715,0.0743 2.464747,2.55971 5.318224,5.52307 l 5.188142,5.38792 -0.06524,0.15558 c -0.03588,0.0856 -0.288522,0.6816 -0.561424,1.32453 l -0.496185,1.16895 -1.740524,-0.0119 c -0.957288,-0.007 -4.392364,-0.0174 -7.633503,-0.0243 z m 19.589652,-5.24138 c -0.712179,-0.30247 -1.305328,-0.56039 -1.318105,-0.57317 -0.01277,-0.0128 -0.0072,-3.45913 0.01238,-7.65856 l 0.03563,-7.63531 1.788624,0.75983 c 0.983744,0.41792 1.814974,0.7774 1.847178,0.79886 0.04578,0.0305 0.03288,0.98466 -0.05923,4.37741 -0.06479,2.38612 -0.117559,4.44686 -0.117282,4.57942 l 4.48e-4,0.24102 3.24018,-3.26967 3.240214,-3.26966 1.78356,0.75711 c 0.980959,0.41641 1.801446,0.77332 1.823303,0.79314 0.02185,0.0199 -2.320873,2.30888 -5.206069,5.08681 -2.885194,2.77793 -5.365114,5.16596 -5.510933,5.30673 l -0.265123,0.25597 z m -12.34695,-4.8958 c -2.942875,-2.96981 -5.356102,-5.41524 -5.362732,-5.43431 -0.0104,-0.0301 3.575683,-1.50529 3.65865,-1.505 0.0172,6e-5 1.436368,1.48058 3.153703,3.29005 1.717335,1.80948 3.14167,3.29761 3.165188,3.30699 0.02476,0.01 0.03646,-1.91609 0.02778,-4.57516 l -0.01498,-4.5922 1.828043,-0.73907 c 1.005424,-0.40649 1.833188,-0.73378 1.839475,-0.72732 0.01771,0.0182 -0.27252,15.28791 -0.290931,15.30631 -0.01962,0.0197 -2.434208,1.00013 -2.563044,1.04078 -0.07161,0.0227 -1.205843,-1.097 -5.441159,-5.37107 z"
         id="path7"
         sodipodi:nodetypes="ccccccccccsccccsssccccscccsssccccsssccssssscssssscssscssscssssssssscccsscsscsssssccsssccccsssscssssssscssssss" /></g><path
       style="fill:#000000;stroke-width:0.264583"
       d="M 69.934584,101.51795 110.54176,80.086379"
       id="path4" /></g></svg>
