<?xml version="1.0" encoding="UTF-8" standalone="no"?>
<!-- Created with Inkscape (http://www.inkscape.org/) -->

<svg
   width="210mm"
   height="297mm"
   viewBox="0 0 210 297"
   version="1.1"
   id="svg1"
   xml:space="preserve"
   inkscape:version="1.4.3 (0d15f75, 2025-12-25)"
   sodipodi:docname="Velo Working Logo Only.svg"
   xmlns:inkscape="http://www.inkscape.org/namespaces/inkscape"
   xmlns:sodipodi="http://sodipodi.sourceforge.net/DTD/sodipodi-0.dtd"
   xmlns="http://www.w3.org/2000/svg"
   xmlns:svg="http://www.w3.org/2000/svg"><sodipodi:namedview
     id="namedview1"
     pagecolor="#505050"
     bordercolor="#eeeeee"
     borderopacity="1"
     inkscape:showpageshadow="0"
     inkscape:pageopacity="0"
     inkscape:pagecheckerboard="0"
     inkscape:deskcolor="#505050"
     inkscape:document-units="mm"
     inkscape:zoom="0.46374558"
     inkscape:cx="440.97455"
     inkscape:cy="597.31027"
     inkscape:window-width="1470"
     inkscape:window-height="895"
     inkscape:window-x="0"
     inkscape:window-y="61"
     inkscape:window-maximized="0"
     inkscape:current-layer="layer1" /><defs
     id="defs1" /><g
     inkscape:label="Layer 1"
     inkscape:groupmode="layer"
     id="layer1"><path
       style="fill:#000000;stroke-width:0.812042"
       d="m 97.63993,196.04646 v -53.28348 h 7.62727 7.62727 v 53.28348 53.28346 h -7.62727 -7.62727 z m 60.05132,-3.6706 c -12.40774,-12.87619 -23.02427,-23.92961 -23.59227,-24.56317 l -1.03274,-1.15193 2.45035,-5.77187 2.45036,-5.77188 34.03308,0.0777 c 18.71819,0.0427 34.06277,0.10467 34.09908,0.13763 0.0595,0.0541 -6.74605,16.20849 -6.88352,16.33945 -0.0318,0.0303 -8.61428,-0.17407 -19.07223,-0.45409 -10.45796,-0.28002 -19.64291,-0.50719 -20.41101,-0.50483 l -1.39654,0.004 14.54623,14.43718 14.54623,14.43718 -3.45961,8.1107 c -1.90279,4.46088 -3.51772,8.10487 -3.58874,8.09778 -0.0711,-0.007 -10.28092,-10.54796 -22.68867,-23.42414 z M 25.462056,206.25279 c -1.824675,-4.54415 -3.274931,-8.2952 -3.22279,-8.33566 0.52837,-0.40994 29.42219,-27.92943 29.42219,-28.02272 0,-0.0691 -9.192684,-0.0867 -20.428187,-0.0391 l -20.428189,0.0865 -3.2985939,-8.16439 -3.2985941,-8.16441 0.6838324,-0.0585 c 1.5203708,-0.13003 67.4609306,1.22132 67.6029696,1.38541 0.08428,0.0974 1.1914,2.74993 2.460262,5.89458 l 2.30702,5.71753 -15.0025,14.90179 c -8.251374,8.19595 -19.11305,18.98959 -24.137056,23.98582 -5.024007,4.99624 -9.181406,9.08206 -9.238665,9.07962 -0.05726,-0.002 -1.597024,-3.7224 -3.421699,-8.26655 z M 172.73094,142.31812 c -16.89817,-0.33033 -31.63712,-0.63124 -32.75323,-0.66871 l -2.0293,-0.0681 -2.32147,-5.79564 c -1.27681,-3.18761 -2.32147,-5.85538 -2.32147,-5.92838 0,-0.16697 13.51507,-13.59395 26.25443,-26.16635 11.31737,-11.169083 22.02254,-21.663705 22.09586,-21.587796 0.095,0.09835 1.63581,3.797951 3.42402,8.221329 l 3.25129,8.042492 -0.92478,0.900156 c -0.50863,0.495086 -6.77415,6.435839 -13.92337,13.201649 -7.14922,6.76583 -13.43366,12.72577 -13.96542,13.24433 l -0.96684,0.94284 20.53571,-0.14594 c 17.589,-0.125 20.55344,-0.10236 20.65936,0.1577 1.11415,2.73543 5.89751,14.53703 6.19711,15.2896 l 0.40627,1.02055 -1.44711,-0.0296 c -0.79593,-0.0162 -15.2729,-0.29983 -32.17106,-0.63016 z M 30.659608,141.31273 c -15.569337,-0.0329 -26.2657398,-0.13493 -26.2657398,-0.25067 0,-0.26872 6.6595318,-15.98188 6.8654068,-16.19892 0.09104,-0.096 9.290254,0.0662 20.4427,0.36037 11.152446,0.2942 20.306195,0.50587 20.341665,0.4704 0.03547,-0.0355 -6.467102,-6.53833 -14.450157,-14.45081 l -14.514646,-14.386319 3.479323,-8.212038 3.479324,-8.212047 0.579811,0.602356 c 0.318896,0.331297 10.985695,11.408941 23.703998,24.616998 l 23.124188,24.01465 -0.290778,0.6934 c -0.159927,0.38138 -1.28598,3.038 -2.502338,5.9036 l -2.21156,5.21017 -7.757729,-0.0529 c -4.266751,-0.0291 -19.577312,-0.0778 -34.023468,-0.10828 z m 87.313502,-23.36151 c -3.17427,-1.34811 -5.81801,-2.49771 -5.87496,-2.55466 -0.0569,-0.0569 -0.0321,-15.417755 0.0552,-34.135127 l 0.15879,-34.031583 7.97212,3.386701 c 4.38467,1.862685 8.08956,3.464965 8.2331,3.560632 0.20409,0.136017 0.14655,4.388727 -0.26401,19.510671 -0.28874,10.635212 -0.52397,19.820157 -0.52274,20.411007 l 0.002,1.074266 14.44188,-14.573321 14.44204,-14.573321 7.94954,3.374545 c 4.37226,1.855994 8.02927,3.446808 8.12669,3.535134 0.0974,0.08833 -10.34442,10.290978 -23.20409,22.67255 C 136.629,107.99029 125.57569,118.63404 124.92576,119.2615 l -1.18169,1.14084 z M 62.941223,96.130037 C 49.824467,82.893271 39.068414,71.993659 39.038882,71.908687 c -0.04664,-0.134222 15.937248,-6.70929 16.307041,-6.707999 0.07666,2.68e-4 6.402069,6.599153 14.056444,14.66418 7.654376,8.065035 14.002811,14.69788 14.107634,14.739659 0.110356,0.04401 0.162484,-8.540241 0.123831,-20.392053 l -0.06675,-20.468028 8.147814,-3.294128 c 4.481297,-1.811779 8.170742,-3.270555 8.198765,-3.241735 0.07895,0.0812 -1.214658,68.140077 -1.296717,68.222127 -0.08747,0.0875 -10.849562,4.45766 -11.423805,4.6389 -0.319204,0.10074 -5.374588,-4.88953 -24.251913,-23.939573 z"
       id="path7"
       sodipodi:nodetypes="ccccccccccsccccsssccccscccsssccccsssccssssscssssscssscssscssssssssscccsscsscsssssccsssccccsssscssssssscssssss" /></g></svg>
